<svg width="248" height="82" viewBox="0 0 248 82" fill="none" xmlns="http://www.w3.org/2000/svg">
<path d="M119.445 27.4688V30.9485H108.407V38.6188H117.013V42.0985H108.407V53.473H104.142V27.4688H119.445ZM125.568 30.1253C124.795 30.1253 124.146 29.8634 123.622 29.3396C123.098 28.8158 122.837 28.1672 122.837 27.394C122.837 26.6207 123.098 25.9721 123.622 25.4483C124.146 24.9245 124.795 24.6626 125.568 24.6626C126.316 24.6626 126.952 24.9245 127.476 25.4483C128 25.9721 128.262 26.6207 128.262 27.394C128.262 28.1672 128 28.8158 127.476 29.3396C126.952 29.8634 126.316 30.1253 125.568 30.1253ZM127.663 32.8567V53.473H123.398V32.8567H127.663ZM137.529 25.7851V53.473H133.263V25.7851H137.529ZM162.024 42.6597C162.024 43.433 161.974 44.1314 161.874 44.755H146.122C146.247 46.4014 146.858 47.7234 147.956 48.7212C149.053 49.7189 150.4 50.2178 151.997 50.2178C154.291 50.2178 155.913 49.2575 156.861 47.3368H161.463C160.839 49.2325 159.704 50.7915 158.058 52.0138C156.437 53.2111 154.416 53.8098 151.997 53.8098C150.026 53.8098 148.255 53.3732 146.684 52.5002C145.137 51.6022 143.915 50.355 143.017 48.7586C142.144 47.1372 141.707 45.2664 141.707 43.1461C141.707 41.0259 142.131 39.1676 142.979 37.5711C143.852 35.9498 145.062 34.7026 146.609 33.8295C148.18 32.9565 149.976 32.52 151.997 32.52C153.942 32.52 155.676 32.944 157.197 33.7921C158.719 34.6402 159.904 35.8375 160.752 37.3841C161.6 38.9057 162.024 40.6642 162.024 42.6597ZM157.572 41.3128C157.547 39.7413 156.985 38.4816 155.888 37.5337C154.79 36.5859 153.431 36.1119 151.81 36.1119C150.338 36.1119 149.078 36.5859 148.031 37.5337C146.983 38.4567 146.359 39.7163 146.16 41.3128H157.572ZM181.525 27.4688V30.9485H170.487V38.6188H179.093V42.0985H170.487V53.473H166.222V27.4688H181.525ZM189.743 25.7851V53.473H185.478V25.7851H189.743ZM204.286 53.8098C202.34 53.8098 200.582 53.3732 199.01 52.5002C197.439 51.6022 196.204 50.355 195.306 48.7586C194.408 47.1372 193.959 45.2664 193.959 43.1461C193.959 41.0508 194.421 39.1925 195.344 37.5711C196.266 35.9498 197.526 34.7026 199.123 33.8295C200.719 32.9565 202.502 32.52 204.473 32.52C206.444 32.52 208.227 32.9565 209.824 33.8295C211.42 34.7026 212.68 35.9498 213.603 37.5711C214.526 39.1925 214.987 41.0508 214.987 43.1461C214.987 45.2415 214.513 47.0998 213.565 48.7212C212.617 50.3425 211.32 51.6022 209.674 52.5002C208.053 53.3732 206.257 53.8098 204.286 53.8098ZM204.286 50.1056C205.384 50.1056 206.406 49.8436 207.354 49.3198C208.327 48.796 209.113 48.0102 209.711 46.9626C210.31 45.9149 210.609 44.6428 210.609 43.1461C210.609 41.6495 210.322 40.3898 209.749 39.3671C209.175 38.3195 208.414 37.5337 207.466 37.0099C206.518 36.4861 205.496 36.2242 204.398 36.2242C203.301 36.2242 202.278 36.4861 201.33 37.0099C200.407 37.5337 199.671 38.3195 199.123 39.3671C198.574 40.3898 198.299 41.6495 198.299 43.1461C198.299 45.3662 198.861 47.0873 199.983 48.3096C201.131 49.5069 202.565 50.1056 204.286 50.1056ZM246.892 32.8567L240.493 53.473H236.003L231.85 38.2446L227.697 53.473H223.207L216.772 32.8567H221.112L225.415 49.4321L229.792 32.8567H234.245L238.436 49.3572L242.701 32.8567H246.892Z" fill="white"/>
<rect opacity="0.2" width="74.8323" height="74.8323" rx="37.4161" fill="white"/>
<rect x="32.7391" y="31.1801" width="49.8882" height="49.8882" rx="24.9441" fill="white"/>
</svg>
